<?xml version="1.0" standalone="no"?>
<!DOCTYPE svg PUBLIC "-//W3C//DTD SVG 20010904//EN"
 "http://www.w3.org/TR/2001/REC-SVG-20010904/DTD/svg10.dtd">
<svg version="1.0" xmlns="http://www.w3.org/2000/svg"
 width="460.000000pt" height="460.000000pt" viewBox="0 0 460.000000 460.000000"
 preserveAspectRatio="xMidYMid meet">

<g transform="translate(0.000000,460.000000) scale(0.100000,-0.100000)"
fill="#000000" stroke="none">
<path d="M2380 4280 c-36 -11 -77 -19 -92 -20 -15 0 -30 -5 -33 -10 -5 -8 -11
-7 -20 0 -8 7 -19 9 -25 5 -6 -4 -40 -2 -76 5 -50 10 -71 10 -93 0 -16 -6 -50
-12 -74 -12 -29 -1 -44 -5 -41 -12 7 -18 -55 -37 -79 -25 -13 8 -26 8 -41 1
-11 -6 -39 -16 -61 -23 -22 -6 -67 -31 -100 -54 -33 -24 -76 -50 -95 -58 -19
-8 -53 -32 -74 -53 -22 -22 -36 -31 -33 -21 15 40 -6 13 -29 -38 -16 -37 -22
-66 -19 -86 4 -22 2 -28 -6 -23 -13 8 -10 -21 16 -131 9 -38 22 -120 28 -182
12 -109 12 -112 -11 -145 -13 -18 -21 -42 -18 -52 3 -11 -7 -56 -22 -100 -26
-77 -27 -89 -24 -254 2 -143 7 -190 27 -275 28 -114 31 -157 13 -175 -10 -10
-10 -15 -1 -20 7 -5 9 -13 3 -21 -4 -8 -6 -20 -3 -28 8 -19 -11 -16 -37 7 -46
40 -55 25 -54 -83 0 -87 2 -99 21 -112 14 -10 20 -22 17 -37 -2 -13 2 -7 10
12 8 19 15 45 15 58 1 12 4 22 9 22 4 0 7 -29 8 -65 1 -45 6 -70 17 -83 10
-10 17 -32 17 -48 l-1 -29 -20 25 -21 24 4 -29 c2 -22 8 -30 23 -30 19 0 20
-7 20 -109 0 -79 4 -110 13 -113 6 -3 12 -12 12 -21 0 -8 4 -29 10 -46 5 -17
15 -60 21 -95 7 -38 20 -71 31 -80 10 -8 18 -26 18 -39 0 -24 68 -159 116
-230 23 -33 25 -44 20 -102 -18 -238 -39 -763 -29 -757 4 3 8 -34 8 -81 0 -72
4 -95 25 -137 26 -53 64 -98 74 -88 3 4 6 1 6 -6 0 -7 5 -9 10 -6 6 3 10 -3
10 -15 0 -12 4 -18 10 -15 5 3 10 1 10 -5 0 -6 4 -8 10 -5 5 3 10 0 10 -7 0
-9 3 -9 10 2 8 13 10 12 10 -2 0 -11 24 -33 60 -55 33 -21 60 -44 60 -50 0
-15 26 -17 35 -3 4 7 12 7 25 0 10 -5 28 -10 39 -10 12 0 21 -7 21 -15 0 -8 9
-15 21 -15 18 0 19 2 6 20 -16 23 -82 60 -108 60 -25 0 -49 33 -49 67 0 17 -7
50 -15 73 -8 24 -13 45 -11 47 3 3 -4 25 -14 49 -19 44 -19 44 0 34 11 -6 34
-32 51 -58 18 -26 58 -70 88 -98 31 -28 76 -83 101 -122 l45 -71 156 -1 155 0
27 43 c28 43 160 180 156 162 -3 -22 1 -45 10 -45 9 0 181 165 181 174 0 3 19
26 43 51 23 25 54 59 69 75 46 50 68 138 113 450 16 106 21 237 11 248 -3 3
-6 -9 -6 -26 0 -38 -15 -50 -24 -19 -9 34 -6 56 4 32 7 -16 9 -17 9 -3 1 9 -3
19 -8 23 -5 3 -8 29 -6 58 4 68 2 65 22 63 12 -1 18 8 20 28 1 15 8 36 16 45
8 9 20 31 28 48 8 18 20 33 26 33 7 0 13 6 13 14 0 7 10 33 23 57 13 24 34 71
47 104 12 33 29 74 35 90 20 48 35 122 29 140 -4 10 -2 15 7 13 9 -2 13 4 11
15 -2 11 4 27 14 38 11 12 17 35 16 66 0 38 2 43 8 23 l8 -25 1 27 c1 15 -4
38 -10 52 -7 14 -8 33 -4 43 5 10 7 21 7 26 -1 4 3 7 9 7 11 0 10 107 -1 125
-4 6 -7 28 -7 50 l-1 40 7 -35 8 -35 15 35 c9 19 19 67 23 105 4 39 9 78 11
88 7 22 -14 22 -39 -1 -20 -16 -20 -16 -12 3 17 41 11 70 -13 73 -24 4 -24 4
-17 100 4 53 11 102 15 107 11 13 50 322 45 357 -2 15 -11 48 -20 72 -15 39
-16 52 -5 96 7 27 9 58 4 68 -4 9 -6 23 -5 29 1 7 -5 26 -13 41 -22 43 -27 82
-16 124 8 28 7 46 -6 77 -9 23 -20 41 -25 41 -5 0 -9 6 -9 13 -1 18 -47 67
-64 67 -8 0 -18 5 -21 10 -3 6 -18 10 -33 10 -43 0 -69 25 -77 72 -19 108 -66
198 -106 198 -23 0 -45 26 -27 33 8 3 -1 11 -19 18 -18 8 -33 17 -33 21 0 4
-24 20 -52 34 -29 14 -60 32 -68 39 -16 13 -37 21 -160 55 -41 12 -89 26 -106
31 -47 14 -122 10 -194 -11z m-855 -259 c-3 -6 -11 -11 -17 -11 -6 0 -6 6 2
15 14 17 26 13 15 -4z m-62 -81 c-39 -61 -50 -69 -39 -26 6 23 58 86 71 86 3
0 -12 -27 -32 -60z m802 -215 c92 -14 317 -19 260 -6 -37 9 131 6 201 -4 73
-10 197 -45 215 -61 9 -8 18 -12 21 -9 2 3 11 -6 18 -20 7 -14 20 -25 27 -25
7 0 16 -7 19 -15 4 -8 10 -15 15 -15 4 0 21 -12 36 -26 15 -14 38 -30 51 -35
12 -5 22 -15 22 -24 0 -8 5 -15 10 -15 19 0 59 -54 70 -93 14 -48 21 -145 12
-151 -4 -2 -6 -46 -5 -96 2 -58 -1 -89 -7 -85 -6 3 -10 19 -10 36 0 28 -7 33
-42 30 -13 -2 -18 5 -18 23 0 14 -3 26 -8 26 -14 0 -33 -41 -27 -61 5 -13 2
-19 -10 -19 -9 0 -13 5 -10 10 8 14 -11 13 -35 -2 -15 -10 -26 -9 -55 5 -39
19 -75 22 -75 8 0 -6 -42 -10 -97 -9 -54 0 -110 -4 -124 -10 -15 -6 -36 -8
-48 -5 -14 3 -21 1 -21 -8 0 -11 -2 -11 -8 -1 -12 18 -108 -4 -126 -29 -8 -11
-20 -17 -29 -14 -8 4 -18 1 -22 -5 -4 -6 -16 -8 -26 -5 -11 4 -31 0 -44 -9
-35 -23 -87 -21 -103 4 -7 11 -19 20 -28 20 -8 0 -23 8 -32 17 -14 14 -17 14
-20 2 -3 -19 -152 -21 -152 -1 0 6 -9 12 -21 12 -11 0 -17 -4 -14 -10 3 -5 0
-10 -9 -10 -8 0 -22 -3 -32 -7 -10 -3 -15 -2 -12 3 14 23 -269 4 -307 -21 -46
-29 -83 -74 -115 -140 -18 -38 -37 -78 -42 -87 -4 -10 -4 -18 0 -18 9 0 10 -6
15 -50 1 -14 6 -30 10 -37 4 -6 1 -13 -5 -16 -9 -3 -4 -13 15 -30 15 -14 27
-30 27 -35 0 -15 40 -56 47 -49 3 4 12 2 19 -4 8 -6 20 -9 29 -5 13 5 42 -29
37 -44 -4 -13 11 -40 23 -40 7 0 15 -9 18 -19 6 -26 70 -52 110 -45 50 8 51 8
73 0 17 -5 23 -2 27 15 4 13 12 20 23 17 18 -3 45 19 167 135 33 31 64 57 69
57 23 0 66 68 92 143 4 14 14 17 48 13 68 -7 86 -16 99 -47 6 -16 9 -32 6 -35
-3 -3 8 -31 24 -62 34 -67 36 -88 10 -104 -18 -11 -18 -15 -6 -47 8 -20 21
-65 30 -101 9 -35 25 -75 37 -87 12 -13 19 -25 16 -28 -13 -13 -149 -42 -154
-33 -4 6 -22 7 -43 3 -20 -3 -57 -9 -83 -11 -31 -4 -48 -11 -48 -19 0 -10 -12
-13 -37 -13 -30 2 -46 -5 -73 -30 -19 -18 -38 -32 -43 -32 -16 0 -17 27 -2 69
20 56 19 59 -8 54 -12 -2 -32 -20 -45 -39 -12 -19 -30 -34 -40 -34 -30 -1 -55
-26 -47 -49 4 -15 2 -21 -8 -21 -9 0 -17 3 -20 8 -2 4 -2 2 -1 -5 4 -15 -10
-24 -50 -34 l-31 -7 28 -1 c24 -1 27 -4 21 -25 -3 -13 -1 -27 5 -30 5 -4 8
-13 4 -21 -9 -26 17 -16 66 25 46 39 83 50 96 29 4 -6 13 -8 21 -5 8 3 14 -1
14 -9 0 -8 9 -24 20 -35 25 -25 25 -30 3 -30 -10 0 -29 -12 -42 -25 -13 -14
-29 -25 -37 -25 -8 0 -22 -4 -32 -9 -9 -5 -36 -15 -60 -22 -23 -7 -38 -15 -32
-19 15 -9 -67 -50 -101 -50 -16 0 -29 -4 -29 -10 0 -5 5 -10 11 -10 5 0 8 -4
4 -9 -3 -5 -1 -13 5 -16 8 -5 7 -11 -1 -21 -15 -19 -27 -18 -31 3 -3 15 -4 15
-17 0 -12 -15 -10 -18 10 -26 16 -7 19 -10 7 -10 -9 -1 -18 -6 -20 -13 -3 -7
-10 -8 -17 -4 -10 7 -11 10 -1 16 9 6 7 10 -8 14 -11 4 -24 6 -28 5 -28 -5
-36 1 -24 16 10 13 9 15 -12 15 -13 0 -32 10 -43 23 l-19 22 -7 -25 c-7 -24
-7 -24 -8 -2 -1 12 -8 25 -17 29 -8 3 -20 16 -25 29 -4 13 -14 24 -20 24 -6 0
-8 -7 -4 -17 5 -14 3 -15 -5 -7 -7 7 -13 23 -13 37 -1 14 -6 25 -10 24 -4 -1
-10 21 -12 48 -2 28 -6 64 -9 80 -2 17 -10 61 -16 98 -7 49 -8 138 0 315 13
320 23 404 55 465 23 46 34 117 18 117 -5 0 -9 31 -10 70 -1 38 -7 85 -13 104
-8 25 -8 45 0 73 13 49 83 178 92 172 5 -2 17 14 29 36 27 51 28 52 39 35 8
-13 10 -13 10 1 0 9 15 28 34 43 19 14 42 33 51 42 9 9 18 14 21 11 4 -3 31 8
61 24 31 17 62 28 69 25 8 -3 14 -1 14 4 0 6 5 10 12 10 6 0 19 7 29 16 9 8
26 17 36 19 10 2 18 4 18 5 0 1 13 3 30 5 16 2 31 8 33 13 3 10 69 6 187 -13z
m872 -661 c-3 -3 -12 -4 -19 -1 -8 3 -5 6 6 6 11 1 17 -2 13 -5z m113 -73 c0
-5 9 -11 20 -14 23 -6 26 -36 8 -57 -11 -12 -10 -12 4 -2 21 17 30 4 35 -52 2
-22 8 -90 14 -151 29 -296 18 -665 -20 -665 -13 0 -13 -2 -2 -9 8 -5 11 -16 6
-30 -9 -28 -25 -17 -25 17 0 15 -4 22 -8 16 -4 -7 -15 -8 -27 -4 -19 7 -18 8
5 14 24 7 26 12 28 72 2 55 -2 73 -25 111 -41 70 -114 107 -126 63 -3 -12 -14
-20 -29 -21 l-23 -1 25 -8 c22 -7 11 -15 -14 -11 -5 1 -6 -16 -3 -39 3 -23 1
-40 -5 -40 -5 0 -6 5 -2 11 5 9 -2 10 -22 6 -16 -3 -23 -4 -16 -1 17 8 5 24
-13 18 -21 -8 0 -44 25 -44 11 0 20 -4 20 -10 0 -5 -5 -10 -10 -10 -6 0 -15
-10 -20 -22 -8 -21 -9 -22 -9 -3 -1 18 -6 20 -40 17 -21 -2 -41 1 -45 6 -4 6
2 8 14 5 34 -9 22 12 -12 22 -33 10 -38 22 -22 59 6 16 4 18 -9 13 -10 -4 -28
-2 -41 3 -18 7 -23 14 -19 29 3 12 1 21 -6 21 -14 0 -51 32 -51 43 0 5 7 7 15
3 8 -3 15 -3 15 0 0 11 -64 65 -87 74 -13 5 -23 16 -23 25 0 20 15 19 42 -5
31 -26 115 -70 136 -70 9 0 26 -14 37 -30 17 -25 27 -30 59 -30 38 0 39 -1 20
-16 -18 -15 -18 -15 6 -8 14 4 40 7 58 7 28 0 32 4 32 29 0 18 -5 28 -14 28
-8 0 -18 5 -21 11 -5 7 10 9 46 5 l54 -6 -1 57 c-2 71 12 112 38 105 10 -2 26
-1 35 3 10 5 21 7 26 7 4 -1 6 23 4 53 -2 31 0 58 5 61 13 8 9 41 -5 47 -9 3
-12 16 -9 36 3 25 1 31 -14 32 -13 0 -15 2 -5 6 8 3 20 -2 27 -11 10 -15 12
-12 9 17 -2 20 -8 45 -15 56 -6 12 -8 26 -5 31 3 5 0 12 -6 15 -5 4 -8 13 -5
21 3 8 0 14 -7 14 -8 0 -8 3 2 9 8 5 11 16 8 25 -9 22 -28 20 -20 -1 3 -12 -1
-9 -12 6 -15 19 -15 25 -4 33 10 7 8 8 -8 5 -13 -3 -26 -1 -29 4 -3 5 9 9 25
9 17 0 31 -4 31 -9z m-1380 -251 c0 -5 -12 -10 -26 -10 -14 0 -34 -5 -44 -10
-11 -6 -21 -6 -24 -1 -7 10 37 29 72 30 12 1 22 -3 22 -9z m-108 -38 c-7 -2
-10 -7 -8 -11 3 -4 -4 -7 -14 -7 -18 0 -18 2 -3 18 8 10 20 15 26 11 8 -5 7
-8 -1 -11z m848 -212 c0 -5 -7 -10 -15 -10 -8 0 -15 5 -15 10 0 6 7 10 15 10
8 0 15 -4 15 -10z m-1223 -132 c-3 -7 -5 -2 -5 12 0 14 2 19 5 13 2 -7 2 -19
0 -25z m1413 6 c0 -8 -6 -11 -15 -8 -8 4 -15 9 -15 13 0 4 7 8 15 8 8 0 15 -6
15 -13z m405 -94 c3 -6 -1 -7 -9 -4 -18 7 -21 14 -7 14 6 0 13 -4 16 -10z m41
-55 c4 -8 12 -15 20 -15 17 0 19 -26 3 -36 -12 -7 -48 32 -49 54 0 17 19 15
26 -3z m-1266 -65 c0 -5 -4 -10 -10 -10 -5 0 -10 5 -10 10 0 6 5 10 10 10 6 0
10 -4 10 -10z m1125 -38 c-8 -8 -25 10 -19 20 4 6 9 5 15 -3 4 -7 6 -15 4 -17z
m188 -169 c-7 -2 -13 -14 -14 -26 0 -12 -3 -16 -6 -9 -7 18 4 42 19 41 10 0
10 -2 1 -6z m-63 -94 c0 -4 -7 -6 -15 -3 -8 4 -15 10 -15 15 0 4 7 6 15 3 8
-4 15 -10 15 -15z m-970 -33 c0 -17 -41 -29 -55 -15 -7 7 -5 8 6 4 10 -4 23 0
30 9 17 19 19 19 19 2z m50 -1 c0 -8 -9 -15 -20 -15 -20 0 -26 11 -13 23 12
13 33 7 33 -8z m-595 -546 c-5 -16 -3 -20 11 -17 10 2 19 -1 20 -7 0 -5 4 -23
9 -39 5 -20 4 -31 -6 -37 -11 -7 -11 -9 3 -9 9 0 19 8 22 18 2 9 4 0 3 -20 -1
-20 2 -40 6 -44 12 -12 8 -24 -8 -24 -13 0 -13 -3 -3 -20 11 -16 10 -23 -5
-37 -16 -16 -17 -16 -17 5 0 13 -7 25 -15 28 -8 4 -12 10 -9 15 3 6 1 16 -6
24 -16 20 -27 201 -11 191 7 -4 9 -16 6 -27z m1326 -92 c-10 -9 -11 -8 -5 6 3
10 9 15 12 12 3 -3 0 -11 -7 -18z m16 -84 c-3 -10 -5 -4 -5 12 0 17 2 24 5 18
2 -7 2 -21 0 -30z m-10 -55 c-3 -8 -6 -5 -6 6 -1 11 2 17 5 13 3 -3 4 -12 1
-19z m-1380 -510 c-2 -18 -4 -6 -4 27 0 33 2 48 4 33 2 -15 2 -42 0 -60z m143
-240 c0 -29 22 -88 30 -83 6 3 7 -1 3 -11 -5 -14 -7 -14 -17 5 -8 14 -15 18
-21 12 -16 -16 -31 1 -38 39 l-6 35 15 -30 15 -30 -6 30 c-4 17 -11 32 -17 34
-6 2 -6 6 2 11 10 6 9 15 -4 40 -9 18 -16 38 -16 44 0 15 60 -81 60 -96z"/>
<path d="M2425 3040 c-3 -5 -2 -10 4 -10 5 0 13 5 16 10 3 6 2 10 -4 10 -5 0
-13 -4 -16 -10z"/>
<path d="M2480 2379 c0 -5 5 -7 10 -4 6 3 10 8 10 11 0 2 -4 4 -10 4 -5 0 -10
-5 -10 -11z"/>
<path d="M1610 2217 c-15 -31 -6 -48 14 -26 9 9 11 21 6 34 -7 19 -8 18 -20
-8z"/>
<path d="M1740 2065 c-10 -12 -10 -18 0 -30 11 -13 14 -13 26 2 27 36 3 62
-26 28z"/>
<path d="M1881 1951 c-7 -5 -9 -11 -5 -14 5 -3 15 1 22 9 14 16 5 18 -17 5z"/>
<path d="M1845 1860 c-7 -12 2 -12 30 0 19 8 19 9 -2 9 -12 1 -25 -3 -28 -9z"/>
<path d="M3270 2890 c0 -5 5 -10 11 -10 5 0 7 5 4 10 -3 6 -8 10 -11 10 -2 0
-4 -4 -4 -10z"/>
<path d="M1845 4240 c3 -5 13 -10 21 -10 8 0 14 5 14 10 0 6 -9 10 -21 10 -11
0 -17 -4 -14 -10z"/>
<path d="M1371 2184 c0 -11 3 -14 6 -6 3 7 2 16 -1 19 -3 4 -6 -2 -5 -13z"/>
<path d="M3036 507 c-3 -13 -21 -44 -41 -70 -41 -53 -42 -57 -15 -57 11 0 20
7 20 15 0 8 5 15 10 15 16 0 12 -26 -12 -75 -21 -42 -21 -46 -6 -62 16 -15 19
-14 42 8 14 13 26 29 26 35 0 7 11 19 25 28 14 9 25 23 25 31 0 9 6 12 15 9 8
-4 15 -1 15 5 0 7 16 21 36 33 l35 21 -22 23 c-27 28 -97 64 -126 64 -13 0
-23 -8 -27 -23z"/>
<path d="M1486 465 c-27 -8 -53 -18 -59 -24 -6 -6 -30 -11 -53 -11 -24 0 -46
-4 -49 -10 -3 -5 1 -10 10 -10 9 0 14 -4 11 -8 -3 -5 51 -8 120 -8 101 1 127
-2 134 -14 8 -12 10 -9 10 11 0 15 3 41 6 58 l7 31 -44 -1 c-24 0 -66 -7 -93
-14z"/>
<path d="M2846 229 c-10 -53 -7 -67 9 -39 16 29 19 56 6 64 -5 3 -11 -8 -15
-25z"/>
<path d="M2821 124 c0 -11 3 -14 6 -6 3 7 2 16 -1 19 -3 4 -6 -2 -5 -13z"/>
</g>
</svg>
